<svg xmlns="http://www.w3.org/2000/svg" width="500" height="500" viewBox="0 0 500 500">
  <g fill="none" fill-rule="evenodd">
    <polyline fill="#5382A1" points="0 500 500 500 500 0 0 0 0 500"/>
    <g fill="#FFF" transform="translate(125 41.016)">
      <path d="M100.390055 326.171875C100.390055 326.171875 84.2393513 335.614361 111.873164 338.817318 145.372449 342.685826 162.473194 342.10347 199.400889 335.073602 199.400889 335.073602 209.107834 341.188339 222.65625 346.512736 139.920038 382.244433 35.4154855 344.432893 100.390055 326.171875M90.7584426 279.296875C90.7584426 279.296875 72.8980164 293.087883 100.156526 296.015821 135.389166 299.792435 163.217256 300.131906 211.387517 290.456983 211.387517 290.456983 218.059749 297.501006 228.515625 301.362488 130.018833 331.363236 20.2524778 303.696351 90.7584426 279.296875M174.84094 201.537143C195.129779 224.970618 169.501772 246.09375 169.501772 246.09375 169.501772 246.09375 220.963139 219.401042 197.347588 185.983586 175.251645 154.835217 158.330589 139.322917 250 85.9375 250 85.9375 106.129952 122.036603 174.84094 201.537143"/>
      <path d="M282.925734 360.981493C282.925734 360.981493 294.779901 370.848564 269.84103 378.444971 222.424361 392.894657 72.4629915 397.270848 30.8298433 379.022958 15.8583171 372.458672 43.9555649 363.376012 52.7744091 361.476911 62.0034321 359.453955 67.2537208 359.825518 67.2537208 359.825518 50.6004615 348.01806-40.3771964 383.027586 21.02657 393.018512 188.543592 420.390346 326.363669 380.715636 282.925734 360.981493M108.867978 230.538294C108.867978 230.538294 32.5402466 248.747919 81.8660173 255.339638 102.67148 258.141119 144.159295 257.481947 182.815598 254.268484 214.413638 251.590598 246.09375 245.90524 246.09375 245.90524 246.09375 245.90524 234.972882 250.684236 226.888708 256.204801 149.411956 276.68033-.288885406 267.163535 42.7993503 246.234826 79.2396868 228.51958 108.867978 230.538294 108.867978 230.538294M243.7798 308.510359C322.169931 267.861498 285.914495 228.84185 260.641844 234.096062 254.435958 235.399432 251.659641 236.499151 251.659641 236.499151 251.659641 236.499151 253.94602 232.914882 258.355465 231.3264 308.41083 213.771631 346.870988 283.094638 242.1875 310.546875 242.1875 310.546875 243.412346 309.447156 243.7798 308.510359M195.92407 0C195.92407 0 239.210845 43.6465849 154.876969 110.820445 87.2388386 164.690924 139.443584 195.403667 154.836247 230.46875 115.336557 194.541411 86.3836906 162.925352 105.807765 133.485463 134.353418 90.3315963 213.393521 69.3500301 195.92407 0"/>
      <path d="M116.03318,418.623413 C191.679675,423.379183 307.79684,416.00371 310.546875,380.859375 C310.546875,380.859375 305.252031,394.199713 248.034877,404.759135 C183.470614,416.688863 103.88377,415.278253 56.640625,407.66096 C56.640625,407.620657 66.3273167,415.479769 116.03318,418.623413"/>
    </g>
    <polygon fill="#FFF" points="213.235 39.454 180.729 160.156 146.277 160.156 124.634 81.526 103.558 160.156 69.106 160.156 36.6 39.454 69.106 39.454 87.669 122.543 109.88 39.454 140.927 39.454 162.085 122.543 181.54 39.454"/>
  </g>
</svg>
